<svg xmlns="http://www.w3.org/2000/svg" xmlns:xlink="http://www.w3.org/1999/xlink"><symbol id="bg" viewBox="0 0 2032 360.368">
<g>
	<polygon fill-rule="evenodd" clip-rule="evenodd" points="2032,360.368 2032,0 1016,173 0,0 0,360.368 	"/>
</g>
</symbol><symbol id="icon-arrow_down" viewBox="0 0 25.18 16.164">
<g>
	<path d="M13.293,15.871c-0.391,0.391-1.016,0.391-1.406,0L0.293,4.293c-0.391-0.391-0.391-1.031,0-1.422
		l2.594-2.578c0.391-0.391,1.016-0.391,1.406,0L12.59,8.59l8.297-8.297c0.391-0.391,1.016-0.391,1.406,0l2.594,2.578
		c0.391,0.391,0.391,1.031,0,1.422L13.293,15.871z"/>
</g>
</symbol><symbol id="icon-check" viewBox="0 0 18.164 13.922">
<g>
	<path d="M17.836,3.516L9.352,12l-1.594,1.594c-0.211,0.211-0.504,0.328-0.797,0.328s-0.586-0.117-0.797-0.328
		L4.57,12L0.328,7.758C0.117,7.547,0,7.254,0,6.961s0.117-0.586,0.328-0.797L1.922,4.57c0.211-0.211,0.504-0.328,0.797-0.328
		S3.305,4.359,3.516,4.57l3.445,3.457l7.688-7.699C14.859,0.117,15.152,0,15.445,0s0.586,0.117,0.797,0.328l1.594,1.594
		c0.211,0.211,0.328,0.504,0.328,0.797S18.047,3.305,17.836,3.516z"/>
</g>
</symbol><symbol id="icon-envelope" viewBox="0 0 22.012 17.295">
<g>
	<path d="M19.911,5.331c-1.916,1.327-3.845,2.653-5.748,3.992c-0.799,0.553-2.15,1.683-3.145,1.683h-0.013h-0.012
		c-0.995,0-2.346-1.13-3.145-1.683C5.945,7.984,4.017,6.658,2.113,5.331C1.241,4.741,0,3.354,0,2.235C0,1.032,0.651,0,1.965,0
		h18.082c1.068,0,1.965,0.884,1.965,1.965C22.012,3.341,20.992,4.582,19.911,5.331z M22.012,15.33c0,1.08-0.885,1.965-1.965,1.965
		H1.965C0.884,17.295,0,16.41,0,15.33V5.577c0.369,0.405,0.786,0.762,1.241,1.069c2.039,1.388,4.103,2.776,6.104,4.237
		c1.032,0.762,2.31,1.695,3.648,1.695h0.012h0.013c1.339,0,2.616-0.934,3.647-1.695c2.003-1.449,4.066-2.85,6.117-4.237
		c0.442-0.307,0.86-0.664,1.229-1.069V15.33z"/>
</g>
</symbol><symbol id="icon-envelope2" viewBox="0 0 23 16.391">
<g>
	<path d="M22.632,14.851l-6.476-7.022l6.48-6.493C22.771,1.201,23,1.295,23,1.485v13.22
		C23,14.9,22.762,14.993,22.632,14.851z M12.74,11.248c-0.371,0.373-0.875,0.582-1.402,0.582h-0.016
		c-0.535,0-1.05-0.212-1.429-0.591L7.975,9.323l-6.587,6.705c-0.132,0.135-0.037,0.362,0.151,0.362h20
		c0.187,0,0.283-0.222,0.158-0.357l-6.596-7.149L12.74,11.248z M11.32,10.342L11.32,10.342c0.143,0,0.276-0.057,0.377-0.156
		l9.805-9.822C21.636,0.229,21.541,0,21.352,0H1.258c-0.189,0-0.285,0.229-0.15,0.363l9.838,9.821
		C11.045,10.286,11.18,10.342,11.32,10.342z M0,1.876v12.918c0,0.19,0.231,0.285,0.365,0.148L6.92,8.271L0.363,1.726
		C0.229,1.593,0,1.688,0,1.876z"/>
</g>
</symbol><symbol id="icon-envelope_n" viewBox="1138.75 328.75 45 45">
<path d="M1161.25,328.75c-12.427,0-22.5,10.073-22.5,22.5s10.073,22.5,22.5,22.5s22.5-10.073,22.5-22.5
	S1173.677,328.75,1161.25,328.75z M1147.969,346.354l7.269,4.442l-7.269,9.138V346.354z M1148.799,360.895l7.51-9.443l4.926,3.012
	l4.918-3.028l7.518,9.46H1148.799z M1174.531,359.974l-7.311-9.197l7.311-4.502V359.974z M1174.531,344.811L1161.234,353
	l-13.265-8.106v-2.208h26.563V344.811z"/>
</symbol><symbol id="icon-github" viewBox="0 0 26 22">
<g>
	<path d="M25.047,17.422C22.984,21.594,17.313,22,13.25,22c-4.125,0-10.141-0.359-12.281-4.578
		C0.172,15.844,0,13.984,0,12.25c0-2.281,0.625-4.438,2.125-6.188C1.844,5.203,1.703,4.297,1.703,3.406
		C1.703,2.234,1.969,1.063,2.5,0c2.469,0,4.047,1.078,5.922,2.547C10,2.172,11.625,2,13.25,2c1.469,0,2.953,0.156,4.375,0.5
		C19.484,1.047,21.063,0,23.5,0c0.531,1.063,0.797,2.234,0.797,3.406c0,0.891-0.141,1.781-0.422,2.625
		C25.375,7.797,26,9.969,26,12.25C26,13.984,25.828,15.828,25.047,17.422z M18.5,10.5c-1.031,0-2.016,0.188-3.047,0.328
		C14.641,10.953,13.828,11,13,11s-1.641-0.047-2.453-0.172C9.531,10.688,8.531,10.5,7.5,10.5c-2.547,0-4,2.109-4,4.5
		c0,4.781,4.375,5.516,8.188,5.516h2.625c3.813,0,8.188-0.734,8.188-5.516C22.5,12.609,21.047,10.5,18.5,10.5z M8,18
		c-1.406,0-2-1.859-2-3s0.594-3,2-3s2,1.859,2,3S9.406,18,8,18z M18,18c-1.406,0-2-1.859-2-3s0.594-3,2-3s2,1.859,2,3
		S19.406,18,18,18z"/>
</g>
</symbol><symbol id="icon-github_round" viewBox="0 0 50 50">
<g>
	<path d="M30.5,24.5c-1.031,0-2.016,0.188-3.047,0.328C26.641,24.953,25.828,25,25,25s-1.641-0.047-2.453-0.172
		C21.531,24.688,20.531,24.5,19.5,24.5c-2.547,0-4,2.109-4,4.5c0,4.781,4.375,5.516,8.188,5.516h2.625
		c3.813,0,8.188-0.734,8.188-5.516C34.5,26.609,33.047,24.5,30.5,24.5z M20,32c-1.406,0-2-1.859-2-3s0.594-3,2-3s2,1.859,2,3
		S21.406,32,20,32z M30,32c-1.406,0-2-1.859-2-3s0.594-3,2-3s2,1.859,2,3S31.406,32,30,32z"/>
	<path d="M25,0C11.192,0,0,11.193,0,25s11.192,25,25,25s25-11.193,25-25S38.808,0,25,0z M37.047,31.422
		C34.984,35.594,29.313,36,25.25,36c-4.125,0-10.141-0.359-12.281-4.578C12.172,29.844,12,27.984,12,26.25
		c0-2.281,0.625-4.438,2.125-6.188c-0.281-0.859-0.422-1.766-0.422-2.656c0-1.172,0.266-2.344,0.797-3.406
		c2.469,0,4.047,1.078,5.922,2.547C22,16.172,23.625,16,25.25,16c1.469,0,2.953,0.156,4.375,0.5c1.859-1.453,3.438-2.5,5.875-2.5
		c0.531,1.063,0.797,2.234,0.797,3.406c0,0.891-0.141,1.781-0.422,2.625C37.375,21.797,38,23.969,38,26.25
		C38,27.984,37.828,29.828,37.047,31.422z"/>
</g>
</symbol><symbol id="icon-hamburger" viewBox="0 0 40 35">
<path d="M40,2.5C40,3.881,38.881,5,37.5,5h-35C1.119,5,0,3.881,0,2.5l0,0C0,1.119,1.119,0,2.5,0h35
	C38.881,0,40,1.119,40,2.5L40,2.5z"/>
<path d="M40,17.5c0,1.381-1.119,2.5-2.5,2.5h-35C1.119,20,0,18.881,0,17.5l0,0C0,16.119,1.119,15,2.5,15h35
	C38.881,15,40,16.119,40,17.5L40,17.5z"/>
<path d="M40,32.5c0,1.381-1.119,2.5-2.5,2.5h-35C1.119,35,0,33.881,0,32.5l0,0C0,31.119,1.119,30,2.5,30h35
	C38.881,30,40,31.119,40,32.5L40,32.5z"/>
</symbol><symbol id="icon-in" viewBox="0 0 24 22.938">
<g>
	<path d="M2.875,5.344H2.844C1.109,5.344,0,4.156,0,2.672C0,1.156,1.156,0,2.906,0c1.766,0,2.859,1.156,2.875,2.672
		C5.797,4.156,4.672,5.344,2.875,5.344z M5.453,22.938H0.297V7.453h5.156V22.938z M24,22.938h-5.141v-8.281
		c0-2.078-0.75-3.5-2.609-3.5c-1.422,0-2.266,0.953-2.641,1.875c-0.125,0.344-0.172,0.797-0.172,1.266v8.641H8.297
		c0.063-14.031,0-15.484,0-15.484h5.141v2.25h-0.031c0.672-1.063,1.891-2.609,4.672-2.609c3.391,0,5.922,2.219,5.922,6.969V22.938z"/>
</g>
</symbol><symbol id="icon-in_round" viewBox="0 0 50 50">
<path d="M25,0C11.192,0,0,11.193,0,25s11.192,25,25,25s25-11.193,25-25S38.808,0,25,0z M19.453,34.136h-5.156V18.651
	h5.156V34.136z M16.875,16.542h-0.031c-1.734,0-2.844-1.188-2.844-2.672c0-1.516,1.156-2.672,2.906-2.672
	c1.766,0,2.859,1.156,2.875,2.672C19.797,15.354,18.672,16.542,16.875,16.542z M38,34.136h-5.141v-8.281c0-2.078-0.75-3.5-2.609-3.5
	c-1.422,0-2.266,0.953-2.641,1.875c-0.125,0.344-0.172,0.797-0.172,1.266v8.641h-5.141c0.063-14.031,0-15.484,0-15.484h5.141v2.204
	c0.678-1.061,1.898-2.563,4.641-2.563c3.391,0,5.922,2.219,5.922,6.969V34.136z"/>
</symbol><symbol id="icon-link" viewBox="0 0 19.125 19.125">
<g>
	<path d="M18.129,16.441l-1.723,1.711c-0.633,0.633-1.488,0.973-2.379,0.973c-0.902,0-1.758-0.352-2.391-0.996
		l-2.414-2.426C8.59,15.07,8.25,14.215,8.25,13.324c0-0.926,0.375-1.805,1.031-2.449L8.25,9.844
		c-0.645,0.656-1.512,1.031-2.438,1.031c-0.891,0-1.758-0.352-2.391-0.984L0.984,7.453C0.34,6.809,0,5.965,0,5.063
		c0-0.891,0.363-1.758,0.996-2.379l1.723-1.711C3.352,0.34,4.207,0,5.098,0C6,0,6.855,0.352,7.488,0.996l2.414,2.426
		c0.633,0.633,0.973,1.488,0.973,2.379c0,0.926-0.375,1.805-1.031,2.449l1.031,1.031c0.645-0.656,1.512-1.031,2.438-1.031
		c0.891,0,1.758,0.352,2.391,0.984l2.438,2.438c0.645,0.645,0.984,1.488,0.984,2.391C19.125,14.953,18.762,15.82,18.129,16.441z
		 M8.309,5.004L5.895,2.578C5.684,2.367,5.391,2.25,5.098,2.25S4.512,2.367,4.301,2.566L2.578,4.277
		C2.367,4.488,2.25,4.77,2.25,5.063c0,0.305,0.117,0.586,0.328,0.797l2.438,2.438C5.227,8.508,5.52,8.613,5.813,8.613
		c0.34,0,0.609-0.117,0.844-0.363C6.27,7.863,5.813,7.535,5.813,6.938c0-0.621,0.504-1.125,1.125-1.125
		c0.598,0,0.926,0.457,1.313,0.844c0.246-0.234,0.387-0.504,0.387-0.855C8.637,5.508,8.52,5.215,8.309,5.004z M16.547,13.266
		l-2.438-2.438c-0.211-0.211-0.504-0.328-0.797-0.328c-0.34,0-0.609,0.129-0.844,0.375c0.387,0.387,0.844,0.715,0.844,1.313
		c0,0.621-0.504,1.125-1.125,1.125c-0.598,0-0.926-0.457-1.313-0.844c-0.246,0.234-0.387,0.504-0.387,0.855
		c0,0.293,0.117,0.586,0.328,0.797l2.414,2.426c0.211,0.211,0.504,0.316,0.797,0.316s0.586-0.105,0.797-0.305l1.723-1.711
		c0.211-0.211,0.328-0.492,0.328-0.785C16.875,13.758,16.758,13.477,16.547,13.266z"/>
</g>
</symbol><symbol id="icon-login" viewBox="0 0 14.137 15.422">
<g>
	<path d="M11.456,15.422H2.681C1.084,15.422,0,14.448,0,12.821c0-2.269,0.532-5.753,3.474-5.753
		c0.312,0,1.627,1.396,3.595,1.396s3.283-1.396,3.595-1.396c2.941,0,3.474,3.484,3.474,5.753
		C14.137,14.448,13.053,15.422,11.456,15.422z M7.068,7.711c-2.129,0-3.855-1.727-3.855-3.855S4.939,0,7.068,0
		s3.855,1.727,3.855,3.855S9.197,7.711,7.068,7.711z"/>
</g>
</symbol><symbol id="icon-map_marker" viewBox="0 0 15.151 21.654">
<g id="Glyph_copy_2">
	<path d="M11.004,7.835c0-1.883-1.538-3.414-3.43-3.414c-1.889,0-3.431,1.531-3.431,3.414
		c0,1.884,1.542,3.419,3.431,3.419C9.466,11.254,11.004,9.719,11.004,7.835z"/>
	<path d="M7.574,21.654l1.388-1.817c1.455-1.925,6.189-8.469,6.189-12.049C15.151,3.132,12.106,0,7.574,0
		C3.045,0,0,3.132,0,7.788c0,3.854,5.56,11.223,6.192,12.049L7.574,21.654z M2.792,7.835c0-2.628,2.146-4.77,4.782-4.77
		c2.64,0,4.785,2.142,4.785,4.77c0,2.63-2.146,4.771-4.785,4.771C4.938,12.605,2.792,10.465,2.792,7.835z"/>
</g>
</symbol><symbol id="icon-map_n" viewBox="333.75 72.532 45 45">
<g>
	<circle cx="356.342" cy="92.018" r="5.854"/>
	<path d="M356.25,72.532c-12.427,0-22.5,10.073-22.5,22.5s10.073,22.5,22.5,22.5s22.5-10.073,22.5-22.5
		S368.677,72.532,356.25,72.532z M356.25,110.414c-1.438-1.127-11.252-9.062-11.252-17.422c0-6.203,4.98-11.24,11.16-11.339v-0.004
		c0.031,0,0.062,0.001,0.092,0.001s0.061-0.001,0.092-0.001v0.004c6.18,0.099,11.16,5.136,11.16,11.339
		C367.502,101.352,357.688,109.287,356.25,110.414z"/>
</g>
</symbol><symbol id="icon-night" viewBox="0 0 52.586 63.73">
<text transform="matrix(1 0 0 1 5.772 45.0889)" font-family="&apos;ArialMT&apos;" font-size="24">100</text>
<circle stroke-width="2.5864" stroke-miterlimit="10" cx="26.293" cy="37.438" r="25"/>
<circle cx="26.293" cy="4.5" r="4.5"/>
</symbol><symbol id="icon-password" viewBox="0 0 16.897 15.984">
<g>
	<path d="M15.743,12.078c-0.261,0-1.074-0.943-1.285-1.154l-0.964,0.964l2.209,2.209
		c0.181,0.181,0.281,0.432,0.281,0.683c0,0.563-0.643,1.205-1.205,1.205c-0.251,0-0.502-0.101-0.683-0.281L7.359,8.966
		c-1.054,0.783-2.339,1.315-3.664,1.315C1.506,10.281,0,8.765,0,6.586C0,3.293,3.293,0,6.586,0c2.18,0,3.695,1.506,3.695,3.695
		c0,1.325-0.532,2.61-1.315,3.665l3.564,3.564l0.964-0.964c-0.211-0.211-1.154-1.024-1.154-1.285c0-0.231,0.924-1.155,1.154-1.155
		c0.08,0,0.171,0.041,0.23,0.101c0.372,0.372,3.173,3.012,3.173,3.303C16.897,11.154,15.974,12.078,15.743,12.078z M6.426,1.928
		c-1.064,0-1.928,0.863-1.928,1.928c0,0.291,0.07,0.572,0.19,0.833C4.428,4.568,4.146,4.498,3.855,4.498
		c-1.064,0-1.928,0.863-1.928,1.928s0.863,1.928,1.928,1.928S5.783,7.49,5.783,6.426c0-0.291-0.07-0.572-0.19-0.833
		c0.261,0.121,0.542,0.191,0.833,0.191c1.064,0,1.928-0.863,1.928-1.928S7.49,1.928,6.426,1.928z"/>
</g>
</symbol><symbol id="icon-phone" viewBox="0 0 18.864 18.863">
<g>
	<path d="M18.448,16.76c-0.281,0.656-1.031,1.086-1.634,1.42c-0.791,0.43-1.595,0.684-2.492,0.684
		c-1.246,0-2.371-0.51-3.51-0.924c-0.817-0.295-1.608-0.657-2.345-1.112c-2.278-1.407-5.024-4.153-6.431-6.431
		C1.581,9.659,1.219,8.869,0.924,8.052C0.509,6.913,0,5.788,0,4.542C0,3.644,0.254,2.84,0.683,2.05
		c0.335-0.603,0.764-1.353,1.42-1.634C2.545,0.214,3.483,0,3.965,0C4.06,0,4.153,0,4.247,0.04c0.281,0.094,0.576,0.75,0.71,1.019
		c0.429,0.764,0.844,1.541,1.286,2.291c0.214,0.349,0.616,0.777,0.616,1.192c0,0.817-2.425,2.01-2.425,2.733
		c0,0.361,0.335,0.831,0.522,1.152c1.353,2.438,3.041,4.126,5.479,5.479c0.322,0.188,0.791,0.522,1.152,0.522
		c0.724,0,1.916-2.425,2.733-2.425c0.415,0,0.844,0.402,1.192,0.616c0.75,0.442,1.527,0.857,2.291,1.286
		c0.268,0.134,0.924,0.429,1.018,0.71c0.041,0.094,0.041,0.188,0.041,0.281C18.864,15.38,18.649,16.318,18.448,16.76z"/>
</g>
</symbol><symbol id="icon-phone2" viewBox="0 0 16.492 20.947">
<g>
	<g>
		<path d="M7.858,17.102c-1.523-1.127-3.018-2.677-4.328-4.481c-1.698-2.343-2.883-4.844-3.334-7.042
			c-0.198-0.973-0.248-1.863-0.141-2.58c0.113-0.76,0.398-1.327,0.832-1.643c0.115-0.083,0.234-0.173,0.359-0.27
			c0.706-0.542,1.588-1.217,2.561-1.063c0.717,0.114,1.344,0.65,1.905,1.635c0.722,1.27,0.949,2.161,0.724,2.894
			C6.226,5.243,5.657,5.645,5.056,6.075c-0.068,0.05-0.137,0.099-0.209,0.15C4.638,6.377,4.703,6.891,5.019,7.599
			c0.315,0.712,0.881,1.629,1.676,2.727c1.841,2.538,2.724,3.013,3.086,3.069c0.125,0.021,0.188-0.012,0.231-0.042
			c0.072-0.049,0.142-0.102,0.21-0.149c0.663-0.489,1.289-0.949,2.133-0.814c0.678,0.107,1.398,0.605,2.27,1.563
			c0.736,0.813,1.051,1.548,0.97,2.244c-0.116,1.017-1.058,1.662-1.813,2.182c-0.131,0.092-0.258,0.178-0.372,0.261
			c-0.421,0.307-1.034,0.406-1.771,0.289C10.543,18.755,9.198,18.107,7.858,17.102z"/>
	</g>
	<path d="M15.712,20.623c-0.261-1.595-1.768-2.657-1.781-2.667l0,0c-0.176-0.126-0.22-0.37-0.098-0.546
		c0.122-0.181,0.366-0.224,0.546-0.103c0.07,0.053,1.792,1.26,2.108,3.188c0.035,0.212-0.109,0.415-0.321,0.447
		c-0.043,0.006-0.084,0.007-0.125-0.001C15.88,20.917,15.746,20.791,15.712,20.623z"/>
</g>
</symbol><symbol id="icon-phone_n" viewBox="338.678 110.5 45 45">
<path d="M361.178,110.5c-12.427,0-22.5,10.073-22.5,22.5s10.073,22.5,22.5,22.5s22.5-10.073,22.5-22.5
	S373.604,110.5,361.178,110.5z M374.611,142.203c-1.034,1.601-1.934,3.261-6.258,3.358c-4.418,0.004-8.989-3.655-12.318-7.307
	c-3.323-3.232-6.396-7.408-6.394-11.457c0.1-4.324,1.76-5.224,3.36-6.258c0,0,0.876-0.368,1.639,0.295
	c0.762,0.663,4.103,4.005,4.103,4.005s1.188,0.991,0.369,2.089c-0.652,0.874-2.157,2.484-2.354,2.696l0.564,1.063
	c0.755,1.244,2.194,3.43,4.349,5.201c1.453,1.195,3.911,2.506,3.91,2.504c0.354-0.329,1.823-1.689,2.641-2.301
	c1.098-0.82,2.088,0.367,2.088,0.367s3.342,3.343,4.006,4.105C374.979,141.327,374.611,142.203,374.611,142.203z"/>
</symbol><symbol id="icon-portf_arrow_down" viewBox="0 0 42.736 27.435">
<g>
	<path d="M22.563,26.938c-0.663,0.663-1.724,0.663-2.387,0L0.498,7.286c-0.663-0.663-0.663-1.75,0-2.413L4.9,0.497
		c0.663-0.663,1.724-0.663,2.387,0l14.082,14.082L35.45,0.497c0.663-0.663,1.725-0.663,2.388,0l4.401,4.376
		c0.663,0.663,0.663,1.75,0,2.413L22.563,26.938z"/>
</g>
</symbol><symbol id="icon-portf_arrow_up" viewBox="0 0 42.736 27.435">
<g>
	<path d="M42.239,20.149c0.663,0.662,0.663,1.75,0,2.413l-4.401,4.376c-0.663,0.662-1.725,0.662-2.388,0
		L21.369,12.856L7.287,26.938c-0.663,0.662-1.724,0.662-2.387,0l-4.402-4.376c-0.663-0.663-0.663-1.751,0-2.413L20.175,0.498
		c0.663-0.663,1.724-0.663,2.387,0L42.239,20.149z"/>
</g>
</symbol><symbol id="icon-skype" viewBox="0 0 24 24">
<g>
	<path d="M18,24c-1.375,0-2.641-0.469-3.656-1.25C13.594,22.906,12.797,23,12,23C5.922,23,1,18.078,1,12
		c0-0.797,0.094-1.594,0.25-2.344C0.469,8.641,0,7.375,0,6c0-3.313,2.688-6,6-6c1.375,0,2.641,0.469,3.656,1.25
		C10.406,1.094,11.203,1,12,1c6.078,0,11,4.922,11,11c0,0.797-0.094,1.594-0.25,2.344C23.531,15.359,24,16.625,24,18
		C24,21.313,21.313,24,18,24z M13.469,10.453l-1.625-0.375c-1.188-0.281-2.078-0.484-2.078-1.391c0-0.828,0.875-1.203,2.25-1.203
		c2.453,0,2.5,1.797,4.016,1.797c1.016,0,1.625-0.797,1.625-1.703c0-1.797-2.984-2.969-5.938-2.969
		c-2.703,0-5.844,1.172-5.844,4.344c0,2.625,1.75,3.563,4.031,4.109l2.281,0.563c1.391,0.344,2.25,0.5,2.25,1.5
		c0,0.797-0.891,1.406-2.266,1.406c-2.891,0-3.047-2.406-4.719-2.406c-1.094,0-1.578,0.781-1.578,1.641
		c0,1.922,2.938,3.484,6.453,3.484c2.938,0,6-1.469,6-4.641C18.328,11.891,15.688,10.953,13.469,10.453z"/>
</g>
</symbol><symbol id="icon-skype_n" viewBox="0 0 600 600">
<g>
	<path d="M298.473,298.13c-3.38-0.838-1.53-3.789,1.209-3.745c2.658,0.043,4.01,2.907,5.215,2.759
		c1.208-0.149,2.236-1.994,0.338-3.645c-1.643-1.43-3.718-2.218-6.907-1.922c-2.502,0.232-4.878,1.873-5.168,5.074
		c-0.29,3.203,3.431,4.829,6.377,5.273c2.064,0.31,4.88,1.329,3.189,3.299c-1.554,1.813-4.493,0.692-5.266,0.2
		c-0.773-0.495-1.644-2.269-3.094-2.17c-1.452,0.097-2.166,2.04-0.385,3.744c1.595,1.526,3.334,2.364,7.052,2.167
		c3.722-0.198,7.054-3.546,5.749-6.7C305.479,299.311,301.857,298.968,298.473,298.13z"/>
	<path d="M300,277.5c-12.427,0-22.5,10.073-22.5,22.5c0,12.426,10.073,22.5,22.5,22.5
		c12.427,0,22.5-10.074,22.5-22.5C322.5,287.573,312.427,277.5,300,277.5z M305.756,312.729c-1.353,0-2.616-0.394-3.688-1.067
		c-0.69,0.127-1.4,0.198-2.129,0.198c-6.458,0-11.688-5.282-11.688-11.798c0-0.631,0.049-1.253,0.145-1.859
		c-0.711-1.109-1.124-2.43-1.124-3.853c0-3.909,3.121-7.078,6.975-7.078c1.405,0,2.711,0.423,3.81,1.149
		c0.612-0.103,1.242-0.156,1.883-0.156c6.455,0,11.688,5.284,11.688,11.799c0,0.541-0.039,1.075-0.109,1.601
		c0.765,1.135,1.211,2.508,1.212,3.987C312.731,309.562,309.609,312.729,305.756,312.729z"/>
</g>
</symbol><symbol id="icon-telegram_logo" viewBox="0 0 238.892 238.892">
<g>
	<path d="M153.768,80.319c-24.978,15.69-49.925,31.425-74.885,47.139c-2.01,1.265-3.101,2.873-2.306,5.315
		c3.593,11.024,7.191,22.047,10.786,33.07c0.5-0.156,0.999-0.315,1.499-0.471c0.508-4.21,1.619-8.456,1.393-12.624
		c-0.417-7.655,2.813-12.654,8.521-17.603c18.473-16.013,36.429-32.621,54.502-49.092c1.763-1.607,4.662-2.638,4.417-5.828
		C156.238,79.356,154.883,79.618,153.768,80.319z"/>
	<path d="M119.446,0C53.478,0,0,53.478,0,119.446c0,65.968,53.478,119.446,119.446,119.446
		c65.969,0,119.446-53.478,119.446-119.446C238.892,53.478,185.415,0,119.446,0z M177.351,106.34
		c-4.966,23.363-9.878,46.743-14.941,70.087c-2.393,11.035-6.963,12.814-16.078,6.277c-9.499-6.81-18.968-13.679-28.177-20.872
		c-3.726-2.911-6.225-2.799-9.403,0.636c-4.322,4.678-8.872,9.194-13.712,13.33c-5.623,4.802-9.284,3.637-11.639-3.366
		c-3.895-11.572-7.788-23.15-11.384-34.818c-1.222-3.968-3.213-6.233-7.325-7.354c-8.188-2.235-16.301-4.803-24.314-7.607
		c-3.746-1.311-9.779-1.084-9.621-6.551c0.144-4.825,5.655-5.791,9.519-7.293c25.983-10.102,52.008-20.097,78.025-30.12
		c18.829-7.255,37.63-14.583,56.509-21.704c6.856-2.587,11.2,0.401,11.275,8.174C183.296,78.308,180.332,92.325,177.351,106.34z"/>
</g>
</symbol><symbol id="icon-vk" viewBox="0 0 30.011 17.123">
<g>
	<path d="M27.625,5.832c-3.031,4.031-3.359,3.656-0.859,5.984c2.406,2.234,2.906,3.313,2.984,3.453
		c0,0,1,1.75-1.109,1.766l-4,0.063c-0.859,0.172-2-0.609-2-0.609c-1.5-1.031-2.906-3.703-4-3.359c0,0-1.125,0.359-1.094,2.766
		c0.016,0.516-0.234,0.797-0.234,0.797s-0.281,0.297-0.828,0.344h-1.797c-3.953,0.25-7.438-3.391-7.438-3.391
		S3.437,9.707,0.093,1.848c-0.219-0.516,0.016-0.766,0.016-0.766S0.343,0.785,1,0.785l4.281-0.031
		c0.406,0.063,0.688,0.281,0.688,0.281s0.25,0.172,0.375,0.5c0.703,1.75,1.609,3.344,1.609,3.344
		c1.563,3.219,2.625,3.766,3.234,3.438c0,0,0.797-0.484,0.625-4.375c-0.063-1.406-0.453-2.047-0.453-2.047
		C11,1.41,10.328,1.27,10.031,1.223c-0.234-0.031,0.156-0.594,0.672-0.844c0.766-0.375,2.125-0.391,3.734-0.375
		c1.266,0.016,1.625,0.094,2.109,0.203c1.484,0.359,0.984,1.734,0.984,5.047c0,1.063-0.203,2.547,0.563,3.031
		c0.328,0.219,1.141,0.031,3.141-3.375c0,0,0.938-1.625,1.672-3.516c0.125-0.344,0.391-0.484,0.391-0.484s0.25-0.141,0.594-0.094
		l4.5-0.031c1.359-0.172,1.578,0.453,1.578,0.453C30.203,1.879,29.468,3.379,27.625,5.832z"/>
</g>
</symbol><symbol id="icon-vk_round" viewBox="0 0 50 50">
<path d="M25,0C11.193,0,0,11.193,0,25c0,13.807,11.193,25,25,25c13.807,0,25-11.193,25-25C50,11.193,38.807,0,25,0z
	 M36.76,28.255c2.406,2.234,2.906,3.313,2.984,3.453c0,0,1,1.75-1.109,1.766l-4,0.063c-0.859,0.172-2-0.609-2-0.609
	c-1.5-1.031-2.906-3.703-4-3.359c0,0-1.125,0.359-1.094,2.766c0.016,0.516-0.234,0.797-0.234,0.797s-0.281,0.297-0.828,0.344h-1.797
	c-3.953,0.25-7.438-3.391-7.438-3.391s-3.813-3.938-7.156-11.797c-0.219-0.516,0.016-0.766,0.016-0.766s0.234-0.297,0.891-0.297
	l4.281-0.031c0.406,0.063,0.688,0.281,0.688,0.281s0.25,0.172,0.375,0.5c0.703,1.75,1.609,3.344,1.609,3.344
	c1.563,3.219,2.625,3.766,3.234,3.438c0,0,0.797-0.484,0.625-4.375c-0.063-1.406-0.453-2.047-0.453-2.047
	c-0.359-0.484-1.031-0.625-1.328-0.672c-0.234-0.031,0.156-0.594,0.672-0.844c0.766-0.375,2.125-0.391,3.734-0.375
	c1.266,0.016,1.625,0.094,2.109,0.203c1.484,0.359,0.984,1.734,0.984,5.047c0,1.063-0.203,2.547,0.563,3.031
	c0.328,0.219,1.141,0.031,3.141-3.375c0,0,0.938-1.625,1.672-3.516c0.125-0.344,0.391-0.484,0.391-0.484s0.25-0.141,0.594-0.094
	l4.5-0.031c1.359-0.172,1.578,0.453,1.578,0.453c0.234,0.641-0.5,2.141-2.344,4.594C34.588,26.302,34.26,25.927,36.76,28.255z"/>
</symbol><symbol id="stars1" viewBox="0 0 186.861 110.966">
<g>
	<circle cx="70.704" cy="105.783" r="5.182"/>
	<circle cx="5.183" cy="78.269" r="5.183"/>
	<circle cx="121.8" cy="63.519" r="2.848"/>
	<circle cx="48.859" cy="49.678" r="2.848"/>
	<circle cx="33.16" cy="17.826" r="2.848"/>
	<circle cx="87.597" cy="7.948" r="2.848"/>
	<polygon stroke-width="0.75" stroke-miterlimit="10" points="5.183,78.269 70.704,105.782 
		121.801,63.519 	"/>
	<polygon stroke-width="0.75" stroke-miterlimit="10" points="33.16,17.825 5.183,78.269 
		70.704,105.782 88.01,7.825 	"/>
	
		<line stroke-width="0.75" stroke-miterlimit="10" x1="48.859" y1="49.677" x2="121.801" y2="63.519"/>
</g>
<circle cx="181.678" cy="93.211" r="5.182"/>
<circle cx="136.611" cy="5.184" r="5.183"/>
<circle cx="176.274" cy="27.121" r="2.848"/>
<circle cx="123.17" cy="79.005" r="2.848"/>
<circle cx="88.066" cy="73.644" r="2.848"/>
<circle cx="111.13" cy="23.354" r="2.848"/>
<polygon stroke-width="0.75" stroke-miterlimit="10" points="123.17,79.005 181.678,93.21 
	176.274,27.12 "/>
<polygon stroke-width="0.75" stroke-miterlimit="10" points="88.065,73.644 136.611,5.183 
	181.678,93.21 111.265,22.945 "/>
<line stroke-width="0.75" stroke-miterlimit="10" x1="123.169" y1="79.004" x2="176.274" y2="27.12"/>
</symbol><symbol id="stars2" viewBox="0 0 171.5 132.5">
<circle cx="4.25" cy="92.25" r="4.25"/>
<circle cx="48.25" cy="128.25" r="4.25"/>
<circle cx="72.75" cy="52.75" r="4.75"/>
<circle cx="8.25" cy="22.25" r="4.25"/>
<circle cx="117.25" cy="96.25" r="2.75"/>
<circle cx="126.25" cy="41.25" r="1.911"/>
<circle cx="167.25" cy="4.25" r="4.25"/>
<polyline stroke-miterlimit="10" points="72.75,52.75 117.25,96.25 4.25,92.25 48.25,128.25 
	117.25,96.25 167.25,4.25 126.25,41.25 72.75,54.334 8.25,22.25 "/>
<line stroke-miterlimit="10" x1="48.25" y1="131.334" x2="8.5" y2="24.339"/>
</symbol><symbol id="stars3" viewBox="0 0 103.03 124.03">
<circle cx="5.182" cy="60.182" r="5.182"/>
<circle cx="50.182" cy="5.182" r="5.182"/>
<circle cx="31.182" cy="121.182" r="2.848"/>
<circle cx="65.182" cy="55.182" r="2.848"/>
<circle cx="100.182" cy="49.182" r="2.848"/>
<circle cx="94.182" cy="104.182" r="2.848"/>
<polygon stroke-width="0.75" stroke-miterlimit="10" points="50.183,5.182 5.183,60.182 
	31.183,121.183 "/>
<polygon stroke-width="0.75" stroke-miterlimit="10" points="100.183,49.182 50.183,5.182 
	5.183,60.182 94.183,104.612 "/>
<line stroke-width="0.75" stroke-miterlimit="10" x1="65.183" y1="55.182" x2="31.183" y2="121.183"/>
</symbol></svg>